<?xml version="1.0" standalone="no"?><!DOCTYPE svg PUBLIC "-//W3C//DTD SVG 1.1//EN" "http://www.w3.org/Graphics/SVG/1.1/DTD/svg11.dtd"><svg t="1692584203054" class="icon" viewBox="0 0 1024 1024" version="1.1" xmlns="http://www.w3.org/2000/svg" p-id="12480" xmlns:xlink="http://www.w3.org/1999/xlink" width="64" height="64"><path d="M492.89 586.29c72.02 0 130.6 50.23 130.6 111.95 0 28.77-13.1 54.78-33.99 74.63 20.9 19.85 33.99 45.86 33.99 74.63 0 61.72-58.58 111.95-130.6 111.95s-130.6-50.23-130.6-111.95h74.63c0 19.89 26.16 37.32 55.97 37.32s55.97-17.43 55.97-37.32-26.16-37.32-55.97-37.32h-55.97v-74.63h55.97c29.81 0 55.97-17.43 55.97-37.32s-26.16-37.32-55.97-37.32-55.97 17.43-55.97 37.32h-74.63c0-61.71 58.59-111.94 130.6-111.94z m279.87 0c102.88 0 186.58 83.7 186.58 186.58s-83.7 186.58-186.58 186.58H660.81V586.29h111.95z m0 74.63h-37.32v223.89h37.32c61.72 0 111.95-50.23 111.95-111.95s-50.23-111.94-111.95-111.94zM498.79 66.14a37.075 37.075 0 0 1 25.52 0L934.78 215.4c0.11 0 0.19 0.11 0.3 0.15 2.91 1.08 5.75 2.5 8.36 4.37 0.26 0.15 0.45 0.45 0.71 0.63 0.82 0.6 1.49 1.34 2.24 2.02 1.87 1.64 3.58 3.36 5.07 5.3 0.71 0.93 1.34 1.9 1.94 2.87 1.31 2.05 2.31 4.18 3.21 6.42 0.37 1.01 0.82 1.94 1.12 2.99 0.97 3.32 1.6 6.75 1.6 10.3v335.84l-74.63-37.32V303.72L548.87 425.85v123.1h-74.63v-123.1L138.4 303.72v417.89l186.58 79.97v81.16L86.38 780.5c-13.73-5.86-22.61-19.37-22.61-34.29V250.43c0-3.54 0.63-6.98 1.6-10.3 0.3-1.04 0.75-1.98 1.12-2.99 0.9-2.24 1.9-4.37 3.21-6.42 0.6-0.97 1.23-1.94 1.94-2.87 1.49-1.94 3.21-3.66 5.07-5.3 0.75-0.67 1.42-1.42 2.24-2.02 0.26-0.19 0.45-0.49 0.71-0.63 2.61-1.87 5.45-3.28 8.36-4.37 0.11-0.04 0.19-0.15 0.3-0.15L498.79 66.14z m12.76 74.74L210.27 250.43l301.28 109.56 301.28-109.56-301.28-109.55z" fill="#000000" p-id="12481"></path></svg>