<?xml version="1.0" standalone="no"?><!DOCTYPE svg PUBLIC "-//W3C//DTD SVG 1.1//EN" "http://www.w3.org/Graphics/SVG/1.1/DTD/svg11.dtd"><svg t="1691405263492" class="icon" viewBox="0 0 1024 1024" version="1.1" xmlns="http://www.w3.org/2000/svg" p-id="13715" xmlns:xlink="http://www.w3.org/1999/xlink" width="64" height="64"><path d="M837.4 369.4c-10.5-4.3-21.3-8.4-32.6-12.2 2.1-10.7 3.8-21.2 5.2-31.5 4.4-32.6 5.1-62.2 2.4-88.4-16 14.9-36.1 25.5-58.4 29.8 0.1 15.6-1 32.6-3.4 50.6-1 7.4-2.2 15-3.6 22.6-36-8.8-74.6-15.6-115-20-23.7-32.2-48.5-61.8-73.9-88.2 6.1-5.2 12.3-10.2 18.4-14.9 14.7-11.3 29.1-20.9 42.9-28.7-4-11.8-6.1-24.5-6.1-37.7 0-9.6 1.2-19 3.3-28-24.5 10.8-50.2 26.4-76.7 46.9-8.4 6.5-16.9 13.5-25.3 20.8-8.8-7.7-17.6-15-26.5-21.8-81.5-62.8-155.7-80.5-208.9-49.9-53.2 30.7-74.9 103.8-61.3 205.8 1.4 10.7 3.3 21.7 5.4 32.8-11 3.8-21.6 7.7-31.8 11.9-95.2 39.2-147.6 94.6-147.6 156 0 61.4 52.4 116.8 147.6 156 10.1 4.2 20.6 8.1 31.4 11.8-2.4 12.2-4.5 24.2-6 35.9-13.7 102 8.1 175.1 61.3 205.8 17 9.8 36.2 14.7 57.2 14.7 44.3 0 96.3-21.9 151.7-64.6 9.2-7.1 18.3-14.6 27.5-22.6 8.8 7.6 17.5 14.9 26.3 21.6 55.4 42.7 107.4 64.6 151.7 64.6 20.9 0 40.1-4.9 57.2-14.7C802.9 903.1 824.7 830 811 728c-1.5-11.3-3.5-22.9-5.8-34.6 11.1-3.8 21.8-7.8 32.2-12.1 95.2-39.2 147.6-94.6 147.6-156 0-61.4-52.4-116.7-147.6-155.9z m-104.2 29.3c-5.1 17.8-11 35.9-17.8 54.3-5.8-10.8-11.8-21.6-18-32.4-6.6-11.4-13.3-22.6-20.2-33.5 19.4 3.3 38.1 7.2 56 11.6z m-17.6 199.7c6.7 18.1 12.7 36 17.7 53.5-17.7 4.4-36.1 8.2-55.1 11.4 6.2-10 12.3-20.1 18.2-30.4 6.7-11.4 13.1-22.9 19.2-34.5z m-71.1 4.6c-14.1 24.4-28.9 47.9-44.3 70.2-27.9 2.3-56.6 3.5-85.8 3.5-29.3 0-58.1-1.2-86.1-3.5-15.6-22.6-30.7-46.4-44.9-71.1-14.6-25.3-28-50.9-39.9-76.2 11.7-24.7 24.7-49.5 38.9-74.1 15-25.9 30.7-50.7 47.1-74.2 27.6-2.3 56.1-3.4 84.9-3.4 28.8 0 57.1 1.2 84.6 3.4 16.1 23.2 31.7 47.7 46.4 73.3 14.4 25 27.6 50.1 39.4 75.1-12 25.5-25.5 51.3-40.3 77z m-130 176.4c-13-13.5-25.9-28-38.6-43.4 12.8 0.4 25.7 0.7 38.7 0.7 12.9 0 25.7-0.2 38.5-0.7-12.8 15.3-25.7 29.8-38.6 43.4zM331.4 632c6.1 10.6 12.4 21 18.8 31.3-19.1-3.3-37.6-7.1-55.3-11.5 5.1-17.5 11.1-35.4 17.8-53.5 6 11.2 12.3 22.5 18.7 33.7z m-18.5-178.8c-6.8-18.4-12.8-36.6-17.9-54.3 18-4.5 36.8-8.4 56.2-11.7-7.1 11.3-14 22.8-20.8 34.5-6 10.4-11.8 21-17.5 31.5zM514.5 314c-12.5 0-24.8 0.2-37.1 0.6 12.2-14.6 24.6-28.4 37.1-41.4 12.5 12.9 24.8 26.8 37 41.4-12.3-0.4-24.6-0.6-37-0.6z m-237.1 2.7c-5.2-39-4.5-73.3 2.1-99.2 5.8-22.9 15.8-38.6 29.7-46.7 7.7-4.5 16.9-6.7 27.5-6.7 8.4 0 17.7 1.4 27.8 4.3 25.7 7.3 55.8 23.8 87 47.8 6.5 5 13 10.3 19.5 15.8-25.4 26.4-50.4 56.1-74.2 88.3-40.5 4.5-79.3 11.2-115.5 20.2-1.6-8-2.8-16-3.9-23.8z m-63 309.1c-36.4-15-65.7-32.8-84.9-51.4-16.9-16.5-25.5-33-25.5-49.1s8.6-32.6 25.5-49.1c19.2-18.6 48.5-36.4 84.9-51.4 7.5-3.1 15.2-6 23.2-8.9 10.3 35.6 23.7 72.5 40 109.7-16.3 36.9-29.8 73.5-40.1 108.9-8-2.7-15.7-5.6-23.1-8.7z m149.1 259.5c-22.8 6.4-41.4 5.6-55.3-2.4-13.9-8-23.9-23.7-29.7-46.7-6.6-25.9-7.3-60.2-2.1-99.2 1.2-8.8 2.7-17.8 4.4-26.9 35.9 8.9 74.4 15.6 114.6 20.1 24.3 33.1 49.7 63.5 75.6 90.5-6.8 5.9-13.7 11.5-20.5 16.8-31.2 24-61.3 40.5-87 47.8z m388-149.3c5.2 39 4.5 73.3-2.1 99.2-5.8 22.9-15.8 38.6-29.7 46.7-13.9 8-32.5 8.9-55.3 2.4-25.7-7.3-55.8-23.8-87-47.8-6.5-5-13-10.3-19.5-15.9 25.8-27 51.1-57.4 75.3-90.4 40-4.5 78.4-11.2 114.1-20 1.7 8.8 3.1 17.3 4.2 25.8z m148-161.6c-19.2 18.6-48.5 36.4-84.9 51.4-7.7 3.2-15.6 6.2-23.7 9-10.3-35.5-23.8-72.1-40-109.2 16.3-37.3 29.7-74.2 39.9-109.9 8.2 2.9 16.1 5.9 23.8 9.1 36.4 15 65.7 32.7 84.9 51.4 16.9 16.5 25.5 33 25.5 49.1s-8.6 32.6-25.5 49.1z" p-id="13716" fill="#409EFF"></path><path d="M731.7 150.3m-85.3 0a85.3 85.3 0 1 0 170.6 0 85.3 85.3 0 1 0-170.6 0Z" p-id="13717" fill="#409EFF"></path></svg>